<?xml version="1.0" encoding="utf-8"?>
<!-- Generator: Adobe Illustrator 16.0.0, SVG Export Plug-In . SVG Version: 6.00 Build 0)  -->
<!DOCTYPE svg PUBLIC "-//W3C//DTD SVG 1.1//EN" "http://www.w3.org/Graphics/SVG/1.1/DTD/svg11.dtd">
<svg version="1.1" id="圖層_1" xmlns="http://www.w3.org/2000/svg" xmlns:xlink="http://www.w3.org/1999/xlink" x="0px" y="0px"
	 width="786.5px" height="559.5px" viewBox="0 -109.5 786.5 559.5" enable-background="new 0 -109.5 786.5 559.5"
	 xml:space="preserve">
<g transform="translate(0.000000,450.000000) scale(0.100000,-0.100000)">
	<path d="M5885.166,5034.462c-233.994-81.001-240.996-101.001-47.002-127.002c155-20,256.006-67.998,335-157.998
		c134.004-152.002,159.004-366.001,88.008-776.001c-22.002-126.001-23.008-145-9.004-145c19.004,0,50,66.001,94.004,200
		c127.998,390,125,671.001-9.004,893.999l-34.004,57.002l60-33.003c76.006-41.997,168.007-122.998,207.001-185
		c17.002-26.997,44.004-87.998,62.002-137.998c17.002-48.999,37.998-97.998,47.002-107.002
		c35.996-40.996,150.996-8.999,212.002,58.003c35.996,37.998,40.996,50,40.996,90c0,82.998-57.002,142.998-205,216.997
		c-97.002,49.004-150.996,70-370,143.003C6113.164,5106.459,6097.167,5107.46,5885.166,5034.462z"/>
	<path d="M5837.167,3778.461c-399.004-137.002-687.002-170-1310-150c-589.004,17.998-840-8.999-1175-126.001
		c-552.998-191.997-1006-635-1656.001-1619.004c-530-802.988-816.997-1295-755-1295c23.003,0,148.999,162.012,431.001,555
		c402.002,560,631.001,842.012,940,1159.004c496,508.003,964.003,807.002,1422.001,907.002c75,16.001,152.998,21.997,398.994,28.999
		c417.002,12.002,679.004,37.998,929.004,92.002c394.004,85,777.998,258.999,927.998,421.997c41.006,43.999,55,87.002,30,85
		C6013.164,3836.459,5931.171,3810.463,5837.167,3778.461z"/>
	<path d="M6136.171,3635.463c-27.002-29.004-88.008-110-136.006-180c-122.002-174.004-190.996-259.004-300-363.003
		c-118.994-112.998-250.996-206.997-397.998-283.003c-342.002-175.996-615.996-207.998-1340-155.996
		c-412.002,30-699.004-20-1015-175c-227.998-111.001-417.998-252.993-625-466.001c-170-175-400-483.008-400-535.996
		c0-49.004,82.998,10.996,305,222.988c312.998,298.008,482.998,413.008,727.998,494.004
		c166.006,54.004,272.002,69.004,512.002,69.004c262.998,0,462.998-24.004,865-100.996c112.998-22.012,150.996-25,232.998-19.004
		c239.004,15,462.998,95.996,679.004,241.992c367.998,250.005,757.998,737.007,922.002,1150.01
		c33.994,87.998,45.996,153.999,26.992,153.999C6188.164,3688.461,6162.167,3664.462,6136.171,3635.463z"/>
	<path d="M1952.168,1093.457c0-210.996,2.998-272.988,15-300.996c22.002-54.004,62.998-65.996,242.998-71.992l152.002-5v31.992
		v30.996h-143.999c-138.999,0-146.001,0.996-173.003,24.004l-27.998,24.004l-2.998,265.996l-3.003,265.996h-28.999h-30V1093.457z"/>
	<path d="M4622.167,1121.465c0-272.012,7.002-300.996,77.002-347.012c108.994-70.996,302.002-57.988,380.996,26.016
		c37.002,40,42.002,80.996,42.002,325v232.988h-35h-35v-235.996c0-266.992-2.002-274.004-74.004-315
		c-55.996-31.992-152.998-33.008-212.998-0.996c-72.998,37.988-72.998,36.992-72.998,309.004v242.988h-35h-35V1121.465z"/>
	<path d="M2715.166,1338.457c-143.999-30-197.998-116.992-196.997-315c0-211.992,65-292.988,240-302.988
		c223.999-12.012,313.003,88.984,301.997,345c-7.002,153.984-38.994,220-130,256.992
		C2884.169,1342.461,2771.167,1350.469,2715.166,1338.457z M2899.169,1268.457c52.998-22.988,76.997-62.988,92.998-146.992
		c24.004-124.004-2.998-259.004-61.001-307.012c-41.997-35.996-127.998-51.992-193.999-38.984
		c-68.999,15-101.001,35.996-127.998,86.992c-19.004,35.996-22.002,56.992-22.002,165.996c0,115,2.002,129.004,25,170
		c33.999,62.012,91,90,180,90C2834.169,1288.457,2872.167,1281.465,2899.169,1268.457z"/>
	<path d="M3355.166,1341.465l-92.998-4.004v-309.004v-310h30h30v125v125h87.002c170,0,250.996,27.012,300.996,100
		c32.002,47.012,27.998,140-7.998,194.004C3654.169,1332.461,3573.164,1350.469,3355.166,1341.465z M3595.166,1274.453
		c90-36.992,99.004-177.988,15-221.992c-43.994-23.008-132.998-34.004-215-26.992l-72.998,5.996v122.988
		c0,108.008,2.002,123.008,17.998,127.012C3382.167,1292.461,3564.169,1287.461,3595.166,1274.453z"/>
	<path d="M3892.167,1033.457v-315h35h35v150v150h200h200v-150v-150h30h30v315v315h-30h-30v-135v-135h-200h-200v135v135h-35h-35
		V1033.457z"/>
	<path d="M5410.166,1340.469l-87.998-3.008v-314.004v-315h30h30v135v135h85h85l37.002-47.988c20.996-27.012,67.998-87.012,105-135
		c65-83.008,68.994-86.016,92.998-75c14.004,5.996,25,15,25,18.984c0,4.004-40,60-90,123.008c-49.004,64.004-90,118.008-90,120
		c0,3.008,14.004,6.992,30.996,10.996c65,14.004,129.004,95.996,129.004,165c0,38.008-24.004,98.008-52.002,127.012
		C5698.164,1329.453,5595.166,1347.461,5410.166,1340.469z M5637.167,1274.453c102.002-30,115-175,20-220
		c-40-18.984-182.998-31.992-239.004-21.992l-35.996,6.992v124.004v125l107.998-0.996
		C5549.169,1287.461,5615.166,1281.465,5637.167,1274.453z"/>
	<path d="M6144.169,1216.465c-34.004-73.008-95-207.012-136.006-298.008c-41.992-90-75.996-169.004-75.996-175.996
		c0-14.004,52.998-30,57.002-16.992c2.002,3.984,22.998,50.996,47.002,102.988l42.998,95l150,3.008l150,2.988l47.998-105.996
		c47.998-105,60-116.992,94.003-95.996c11.992,8.008,5,30.996-41.006,133.008c-30.996,67.988-92.998,205-137.998,305.996
		c-77.998,171.992-84.004,181.992-110,181.992C6207.167,1348.457,6200.166,1339.453,6144.169,1216.465z M6295.166,1113.457
		l54.004-120l-115-2.988c-62.998-1.016-116.006-1.016-117.998,0.996c-8.008,6.992,110.996,255,117.998,247.988
		C6238.164,1235.469,6266.171,1179.453,6295.166,1113.457z"/>
</g>
</svg>
